<?xml version="1.0" encoding="UTF-8" standalone="no"?>
<svg width="203px" height="58px" viewBox="0 0 203 58" version="1.1" xmlns="http://www.w3.org/2000/svg" xmlns:xlink="http://www.w3.org/1999/xlink">
    <!-- Generator: Sketch 3.8.3 (29802) - http://www.bohemiancoding.com/sketch -->
    <title>Peerigon_Logo_Flat_RGB_Minze</title>
    <desc>Created with Sketch.</desc>
    <defs></defs>
    <g id="Page-1" stroke="none" stroke-width="1" fill="none" fill-rule="evenodd">
        <g id="Peerigon_Logo_Flat_RGB_Minze">
            <g id="Group">
                <g id="Shape" fill="#46E1C8">
                    <path d="M30.3,36.4 C28.8,37.5 27.3,38.6 25.7,39.7 L15.6,22.2 L25,16.8 C27.6,15.3 29.8,15 31.6,15.7 C33.8,16.7 34.9,19.2 34.2,21.5 C33.9,22.4 33.3,23.6 30,25.5 C28.5,26.4 25.9,27.9 25.9,27.9 L25.5,28.1 L30.3,36.4 L30.3,36.4 Z"></path>
                    <path d="M55.4,17.1 C52.2,10 46.5,4.6 39.2,1.9 C32,-0.8 24.1,-0.6 17.1,2.6 C10,5.7 4.6,11.5 1.9,18.7 C-0.8,25.9 -0.6,33.8 2.6,40.9 C5.8,48 11.5,53.3 18.7,56.1 C22,57.4 25.5,58 29,58 C33,58 37.1,57.1 40.9,55.4 C55.4,48.8 61.9,31.6 55.4,17.1 L55.4,17.1 Z M39.7,35 C38.8,34.8 38,35 37.2,35.6 C36.8,35.9 36.1,36.4 35,37.1 L25,44.3 L24.6,44.6 L10.9,21 L11.3,20.8 C11.3,20.8 20.3,15.6 21.5,14.9 C21.7,14.8 21.9,14.6 22.2,14.5 L22.3,14.5 C23.1,14 23.9,13.6 24.7,13.2 C26.1,12.5 28.1,11.8 30,11.9 C31.8,12 33.5,12.7 34.9,13.9 C37.8,16.3 38.6,20.7 36.7,24.1 C35.7,25.9 34.2,27 32.8,27.9 C31.9,28.4 31,28.9 30.2,29.4 L33.1,34.4 L33.2,34.3 C34,33.7 34.9,33.1 35.8,32.5 C38.4,31 41.8,31.4 44,33.5 C46.3,35.7 46.6,39.4 44.7,41.9 C43.4,43.6 41.4,44.6 39.2,44.6 C38.1,44.6 37.1,44.4 36.2,43.9 C35.1,43.4 34.2,42.6 33.3,41.1 L36.3,39.4 C36.8,40.3 37.7,40.9 38.7,41.1 C39.6,41.3 40.5,41.1 41.2,40.6 C41.9,40.1 42.4,39.4 42.6,38.6 C42.7,37 41.5,35.4 39.7,35 L39.7,35 Z"></path>
                </g>
                <g id="XMLID_22_" transform="translate(68.000000, 13.000000)" fill="#000000">
                    <path d="M8.9,6.6 C7.4,6.6 5.3,7.2 4.1,9 L3.8,9.4 L3.5,7 L0.3,7 L0.3,28.4 L3.7,28.4 L3.7,19.7 L4,20.2 C5,21.7 7.2,22.3 9,22.3 C13.5,22.3 16.6,19.1 16.6,14.4 C16.6,9.9 13.4,6.6 8.9,6.6 L8.9,6.6 Z M8.6,19 C6,19 4.1,17 4.1,14.5 C4.1,11.8 6,10 8.6,10 C11.3,10 13.1,11.9 13.1,14.5 C13.2,17.1 11.2,19 8.6,19 L8.6,19 Z" id="XMLID_39_"></path>
                    <path d="M63,8.6 L62.7,9 L62.4,6.9 L59.2,6.9 L59.2,21.9 L62.6,21.9 L62.6,14 C62.6,11.4 64.1,9.9 66.6,9.9 C67.8,9.9 68.6,10.2 69.3,10.8 L70.9,7.8 C70,7 68.6,6.5 67.2,6.5 C65.7,6.5 64.2,6.8 63,8.6 L63,8.6 Z" id="XMLID_38_"></path>
                    <path d="M75.3,0.4 C74.3,0.4 73.2,1 73.2,2.4 C73.2,3.8 74.3,4.4 75.3,4.4 C76.3,4.4 77.4,3.8 77.4,2.4 C77.4,1 76.3,0.4 75.3,0.4 L75.3,0.4 Z" id="XMLID_37_"></path>
                    <rect id="XMLID_36_" x="73.6" y="6.9" width="3.4" height="15.1"></rect>
                    <path d="M94.3,5.5 L92.8,7.4 L92.7,7.3 C91.6,6.6 90.3,6.5 89.3,6.5 C84.8,6.5 81.7,9.6 81.7,14.1 C81.7,18.8 84.6,21.7 89.3,21.7 C91.3,21.7 93.4,22.7 93.4,25 C93.4,27.1 91.8,28.5 89.3,28.5 C87,28.5 85.2,27.1 85.1,25.2 L81.7,25.2 C81.8,29 84.9,31.7 89.3,31.7 C93.8,31.7 96.8,29 96.8,25 C96.8,22.7 95.9,21.1 93.7,20.1 L93.4,19.9 L93.7,19.7 C96.6,18.4 96.8,15.1 96.8,14.1 C96.8,12.3 96.3,10.9 95.2,9.7 L95.1,9.6 L96.8,7.4 L94.3,5.5 L94.3,5.5 Z M89.2,18.5 C86.7,18.5 85,16.7 85,14 C85,11.4 86.8,9.5 89.2,9.5 C91.6,9.5 93.4,11.4 93.4,14 C93.4,16.6 91.6,18.5 89.2,18.5 L89.2,18.5 Z" id="XMLID_33_"></path>
                    <path d="M108.2,6.6 C103.7,6.6 100.4,9.9 100.4,14.4 C100.4,19 103.6,22.2 108.2,22.2 C112.8,22.2 116,19 116,14.4 C116.1,9.9 112.8,6.6 108.2,6.6 L108.2,6.6 Z M108.2,19.2 C105.2,19.2 103.8,16.8 103.8,14.5 C103.8,12.1 105.3,9.8 108.2,9.8 C110.9,9.8 112.6,12.2 112.6,14.5 C112.6,16.7 111.2,19.2 108.2,19.2 L108.2,19.2 Z" id="XMLID_30_"></path>
                    <path d="M128.4,6.7 C126.6,6.7 125.1,7.4 123.5,9 L123.2,9.3 L122.9,7 L119.8,7 L119.8,22 L123.2,22 L123.2,14.3 C123.2,11.7 125,9.8 127.3,9.8 C129.7,9.8 131.2,11.5 131.2,14.1 L131.2,22 L134.6,22 L134.6,14.1 C134.8,9.7 132.2,6.7 128.4,6.7 L128.4,6.7 Z" id="XMLID_29_"></path>
                    <path d="M28.3,19.3 C25.6,19.3 23.8,18 23.5,15.9 L23.5,15.7 L35.6,15.7 C35.8,12.7 35.2,10.3 33.8,8.8 C32.5,7.4 30.5,6.6 28,6.6 C23.2,6.6 20,9.8 20,14.5 C20,19.4 23.2,22.5 28.3,22.5 C30.6,22.5 33.2,21.8 34.6,20.4 L33.1,17.8 C31.7,18.8 30.1,19.3 28.3,19.3 L28.3,19.3 Z M23.6,12.6 C24.1,10.6 25.8,9.5 28.1,9.5 C30.5,9.5 32,10.6 32.3,12.7 L32.3,12.9 L23.6,12.9 L23.6,12.6 L23.6,12.6 Z" id="XMLID_26_"></path>
                    <path d="M47.8,19.3 C45.1,19.3 43.3,18 43,15.9 L43,15.7 L55.1,15.7 C55.3,12.7 54.7,10.3 53.3,8.8 C52,7.4 50,6.6 47.5,6.6 C42.7,6.6 39.5,9.8 39.5,14.5 C39.5,19.4 42.7,22.5 47.8,22.5 C50.1,22.5 52.7,21.8 54.1,20.4 L52.6,17.8 C51.2,18.8 49.5,19.3 47.8,19.3 L47.8,19.3 Z M43.1,12.6 C43.6,10.6 45.3,9.5 47.6,9.5 C50,9.5 51.5,10.6 51.8,12.7 L51.8,12.9 L43,12.9 L43.1,12.6 L43.1,12.6 Z" id="XMLID_23_"></path>
                </g>
            </g>
        </g>
    </g>
</svg>