<svg id="Layer_1" xmlns="http://www.w3.org/2000/svg" viewBox="0 0 522.2 600"><style>.st0{fill:#F9F919;} .st1{font-family:&apos;Helvetica-Bold&apos;;} .st2{font-size:21.7167px;} .st3{font-size:21.7145px;} .st4{fill:#F2A772;} .st5{fill:#1F1A17;} .st6{fill:#CAB313;} .st7{fill:#DA251D;}</style><path d="M517.6 146.6L265.7 1.2c-2.9-1.6-6.4-1.6-9.2 0L4.6 146.6c-2.9 1.6-4.6 4.8-4.6 8v290.8c0 3.3 1.8 6.4 4.6 8l251.9 145.4c1.5.8 3 1.2 4.6 1.2s3.3-.4 4.6-1.2l251.9-145.4c2.8-1.6 4.6-4.8 4.6-8V154.6c0-3.3-1.7-6.4-4.6-8z"/><path id="background_2_" class="st0" d="M14.8 158.6L261.5 16.2l246.6 142.4v284.9L261.5 585.8 14.8 443.5z"/><g id="foreground" transform="translate(-512.6 -9.5)"><path id="doorknob" d="M774.4 311.1c.4 0 .7.3.7.7 0 .4-.3.7-.7.7-.4 0-.7-.3-.7-.7s.3-.7.7-.7z"/><path id="bottom-stripes" d="M877.9 500.2c-.7-1.2-2.3-1.6-3.4-1l-90 52 38.3-48.9c.8-1.1.7-2.7-.4-3.5s-2.7-.7-3.5.4l-41.8 53.3v-52.1c0-1.4-1.1-2.6-2.6-2.6s-2.6 1.1-2.6 2.6v52.1l-41.8-53.3c-.8-1.1-2.4-1.2-3.5-.4-1.1.8-1.2 2.4-.4 3.5l38.3 48.9-91.7-52.9c-1.2-.7-2.7-.3-3.4 1s-.3 2.7 1 3.4l103 59.4h.1c.1 0 .1.1.3.1H774.1c.1 0 .4.1.5.1.3 0 .4 0 .5-.1h.2c.1 0 .1-.1.3-.1h.1l101.4-58.5c1.1-.6 1.5-2.2.8-3.4z"/><circle id="bottom-dot-right" cx="884.7" cy="495.4" r="3.1"/><circle id="bottom-dot-left" cx="662.8" cy="495.4" r="3.1"/><text id="letter-left" transform="rotate(-35 1145.025 -887.267)" class="st1 st2">M</text><text id="letter-middle" transform="translate(766.214 486.338)" class="st1 st3">U</text><text id="letter-right" transform="rotate(35 -365.29 1545.505)" class="st1 st2">C</text></g><path d="M188.9 435.3h-16.3l-.2-.2-.1-.1c0-.2-.1-.5-.1-.7V200c0-.3.1-.6.1-1.2.8-.1 1.6-.2 2.4-.2h170.7c.9 0 1.7.1 2.7.1V435c-1.3.5-14.5.6-16.7.1v-2.6-132.9c0-5.4-.2-10.9-1.2-16.2-1.4-7-4.2-13.3-9-18.7-16.5-18.8-36.2-33-59.3-42.6-1-.4-1.9-.6-3-.1-23.3 9.7-43.2 24-59.8 43-4.8 5.6-7.6 12-8.9 19.2-.9 5.1-1.1 10.2-1.1 15.3v133.1c-.2.8-.2 1.6-.2 2.7zM166.8 388.6h-49V198.9c1.5-.4 46.9-.5 49-.1v189.8zM353.5 198.7h48.7l.2.2.1.1c0 .2.1.5.1.7v187.7c0 .3-.1.6-.1.9-1.4.4-45.6.6-48.8.2-.5-1.2-.7-186.5-.2-189.8zM404 161.7h14.5v32.4c-1.7.4-85.3.4-87 0v-32.4h15.7c.2 2 .1 4 .1 6V180c1.6.4 18.8.5 21.5.2.2-6 0-12.1.1-18.4H382v18.1c1.5.5 19.2.6 22.1.2-.1-6.1-.1-12.2-.1-18.4zM116.3 180.1h22v-18.5h13.1v18.5H173v-18.4h15.8v32.5h-86.9v-32.5h14.2c0 .7.1 1.3.1 2v14.4c0 .7.1 1.3.1 2zM353.4 435.2v-40.7h49v40.6c-1.4.4-46.3.5-49 .1zM166.9 394.5V435c-1.4.4-45.7.6-48.9.2-.4-1.3-.5-38.3-.1-40.7h49z"/><path d="M120.6 176v-14.3H134c.3 4.7.1 9.4.1 14.3h-13.5zM386.4 161.7h13.2v14c-1.3.4-10.3.5-13.1.2-.4-1.4-.5-11.9-.1-14.2zM155.7 161.7h13v14.2c-4.2.2-8.5.1-13 .1-.1-4.8 0-9.5 0-14.3zM351.8 161.7h12.7V176h-12.6c-.5-1.6-.6-12.3-.1-14.3z"/><path id="top-stripes" d="M364.4 106.7l-103-59.4c-.1-.1-.3-.1-.4-.1H260.4h-.9c-.1 0-.3.1-.4.1l-101.4 58.5c-1.2.7-1.6 2.2-1 3.4.7 1.2 2.3 1.6 3.4 1l90.1-52L212 107c-.8 1.1-.7 2.7.4 3.5 1.1.8 2.7.7 3.5-.4l41.8-53.3v52.1c0 1.4 1.1 2.6 2.6 2.6s2.6-1.1 2.6-2.6V56.8l41.8 53.3c.5.7 1.2.9 2 .9.5 0 1.1-.1 1.5-.5 1.1-.8 1.2-2.4.4-3.5l-38.3-48.9L362 111c.4.3.8.3 1.2.3.8 0 1.8-.4 2.2-1.2.6-1.1.2-2.7-1-3.4z"/><g id="nodeschool-banner_2_"><path d="M157.1 139.5c.9 0 1.6-.7 1.6-1.6v-8.2l6.7 8.8c.5.6.9 1 1.7 1h.1c.9 0 1.7-.7 1.7-1.7v-12.1c0-.9-.7-1.6-1.6-1.6-.9 0-1.6.7-1.6 1.6v7.8l-6.5-8.5c-.5-.6-.9-1-1.7-1h-.3c-.9 0-1.7.7-1.7 1.7v12.1c0 1 .7 1.7 1.6 1.7zM186.2 139.6c4.7 0 8.2-3.6 8.2-7.8 0-4.4-3.3-7.8-8.1-7.8s-8.2 3.6-8.2 7.8c0 4.3 3.3 7.8 8.1 7.8zm-4.5-7.9c0-2.6 1.8-4.7 4.6-4.7 2.6 0 4.6 2.2 4.6 4.8 0 2.6-1.8 4.7-4.6 4.7s-4.6-2.1-4.6-4.8zM205.1 139.3h4.3c4.8 0 8.1-3.3 8.1-7.6s-3.3-7.6-8.1-7.6h-4.3c-.9 0-1.7.7-1.7 1.7v11.8c.1 1 .8 1.7 1.7 1.7zm1.7-12.2h2.5c2.8 0 4.6 1.8 4.6 4.6 0 2.6-1.8 4.6-4.6 4.6h-2.5v-9.2zM227.1 139.3h8.5c.8 0 1.5-.7 1.5-1.5s-.7-1.5-1.5-1.5h-6.9v-3.2h5.8c.8 0 1.5-.7 1.5-1.5s-.7-1.5-1.5-1.5h-5.8V127h6.8c.8 0 1.5-.7 1.5-1.5s-.7-1.5-1.5-1.5h-8.4c-.9 0-1.7.7-1.7 1.7v11.9c.1 1 .8 1.7 1.7 1.7zM245.8 137.7c1.7 1.3 3.7 1.8 5.8 1.8 3.3 0 5.6-1.7 5.6-4.7 0-2.6-1.7-3.8-4.8-4.6-2.6-.7-3.3-1-3.3-2 0-.7.7-1.4 2-1.4 1 0 2.1.3 3.2 1 .2.1.6.2.8.2.9 0 1.6-.7 1.6-1.5 0-.7-.3-1.2-.7-1.4-1.4-.9-3-1.4-4.8-1.4-3.1 0-5.3 1.8-5.3 4.6 0 3 2 3.9 5.1 4.6 2.5.7 3.1 1 3.1 2 0 .9-.8 1.4-2.2 1.4-1.5 0-2.8-.6-3.9-1.4-.2-.1-.6-.3-.9-.3-.9 0-1.6.7-1.6 1.5-.4.9 0 1.4.3 1.6zM272.1 139.6c2.4 0 4-.7 5.4-2 .3-.2.6-.7.6-1.2 0-.8-.7-1.5-1.6-1.5-.3 0-.7.1-1 .3-.9.8-1.8 1.2-3.3 1.2-2.6 0-4.4-2.2-4.4-4.8 0-2.6 1.8-4.7 4.4-4.7 1.2 0 2.2.3 3.1 1 .2.1.6.3 1 .3.9 0 1.6-.7 1.6-1.6 0-.6-.3-1-.7-1.4-1.3-.9-2.8-1.5-5.1-1.5-4.7 0-8 3.6-8 7.8.3 4.6 3.7 8.1 8 8.1zM288.5 139.5c.9 0 1.7-.7 1.7-1.7v-4.6h6.2v4.6c0 .9.7 1.7 1.7 1.7.9 0 1.7-.7 1.7-1.7v-12.1c0-.9-.7-1.7-1.7-1.7-.9 0-1.7.7-1.7 1.7v4.5h-6.2v-4.5c0-.9-.7-1.7-1.7-1.7-.9 0-1.7.7-1.7 1.7v12.1c-.1 1 .6 1.7 1.7 1.7zM314.4 139.6c4.7 0 8.1-3.6 8.1-7.8 0-4.4-3.3-7.8-8.1-7.8-4.7 0-8.2 3.6-8.2 7.8.1 4.3 3.5 7.8 8.2 7.8zm-4.6-7.9c0-2.6 1.8-4.7 4.6-4.7 2.6 0 4.6 2.2 4.6 4.8 0 2.6-1.8 4.7-4.6 4.7-2.6 0-4.6-2.1-4.6-4.8zM336.6 139.6c4.7 0 8.2-3.6 8.2-7.8 0-4.4-3.3-7.8-8.1-7.8-4.7 0-8.2 3.6-8.2 7.8.1 4.3 3.4 7.8 8.1 7.8zm-4.6-7.9c0-2.6 1.8-4.7 4.6-4.7 2.6 0 4.6 2.2 4.6 4.8 0 2.6-1.8 4.7-4.6 4.7-2.6 0-4.6-2.1-4.6-4.8zM355.4 139.4h7.8c.8 0 1.5-.7 1.5-1.5s-.7-1.5-1.5-1.5H357v-10.6c0-.9-.7-1.7-1.7-1.7-.9 0-1.7.7-1.7 1.7v11.9c.1 1 .9 1.7 1.8 1.7z"/></g><g><path class="st4" d="M297.1 297.4c.7.5 1.3.9 1.9 1.4-.3 1.8-.7 3.6-.8 5.4-.3 1.9 1.7 2.8 2.2 4.4.6 1.2 0 2.5-.3 3.7.2.2.4.7.5 1 2.4-1.1 4.7-2.5 7.1-3.6-.9 2.1-1.7 4.2-2.8 6.1-1 1.9-3.5 1.9-5.3 2.2-1-1.3-2.1-2.6-3-3.9.1-.7.2-1.3.2-2-.3-1.7-2.8-2.5-2.4-4.4.1-.9.3-1.8.5-2.7 1.1-2.5 1.7-5.1 2.2-7.6zm-80.1-6.1l1.2.3c.4 2.8-.1 5.7.4 8.5 0 1.4.7 3.2-.5 4.2-1.2 1.2-2.9 2.2-3.5 3.9-.3 1.4-.1 2.8 0 4.2 1.6-.1 1.3-1.9 1.5-3.1.2-2.1 2.6-2.8 3.8-4.3.7-1.8.1-4 .8-5.8.3-1 1.5-1 2.3-1.4.1 1.6.1 3.1-.1 4.7-.3 2.3-.2 4.6-.3 6.9-.7.4-1.3.8-2 1.2.7.9 1.5 1.7 2.4 2.2-1.1 1.7-2.4 3.4-3.4 5.1-2.1.5-4.4.3-6.3-.8-.7.5-1.3.9-1.9 1.4-.8-2.6-.9-5.3-1.4-7.9-.5-2.6-.9-5.2-1.4-7.8 0-.5-.3-1.2.2-1.6h1.6c.3 1.4.7 2.8 1.1 4.2.5-.2 1-.3 1.4-.4-.3-1.3-.7-2.6-1.1-3.9.3-.3.7-.6 1.1-.9.6 1.7 1.1 3.5 1.7 5.2.7-.7 1.1-1.5.7-2.4-1.2-3.5-1.4-7.2-1.7-10.8h1.2c.5 2 .6 4.1.9 6.1 0 .7.5 1 .9 1.5.4-2.9.1-5.6.4-8.5zm32.9-23c-2.3 0-4.7 1.7-5.2 4-.9 4.2-.5 8.6-1.4 12.9.6.2 1.2.3 1.7.5.4 1.8.5 3.6.5 5.4 2.7.7 5.5.2 8.2.6.3-.2.7-.3 1-.5 1.1 1.9 2.1 3.8 3.4 5.5.3-3.2-.1-6.4.3-9.7.3-2.7.2-5.4.2-8 0-1.9-.2-4-1.4-5.6-1.8-2.3-4.4-3.8-7-5h-.3v-.1z"/><path class="st5" d="M254.7 267.6c1.8-.5 3.6-.2 5.5-.3 4.7-.2 9.3 1.2 13.3 3.8 1.7 1.2 3.5 2.5 4.5 4.4 1.6 1.8 2.3 4.2 3.3 6.4 1 2.8 1.7 5.7 1.4 8.6h-12.1c1.9 5.2 5 9.9 7.3 15 1.2 2.7 3.8 4.5 6.5 5.5 3.5 1.6 7.4 2.2 11.2 1.4.4.5.8 1 1.2 1.6l3 3.9v95.7c-3 .3-5.9-.6-8.5-2-1.9-1.3-3.7-2.9-4.5-5.2-.3-1.2-.6-2.4-.6-3.6V345c.3-4.5-1.6-8.7-3.8-12.5-.5-1.7-2.2-2.7-3.2-4.1v84.1h-38.8v-84.1c-1.6 2.3-3.6 4.3-4.7 7-1.7 3.5-2.5 7.4-2.3 11.2v57.1c-.1 2.4-1 5.1-3.1 6.5-2.2 1.6-4.5 3.3-7.3 3.5h-3.5v-69.8c0-8.6-.1-17.3.1-25.9 1-1.7 2.3-3.4 3.4-5.1 2.6-.2 5.2.3 7.8-.5 2.1-.5 3.9-1.7 5.7-2.7 2.3-1.4 4.1-3.5 5.7-5.5.9-1 1.9-1.8 2.5-3 .6-1.1 1.7-1.9 2.3-3.1.8-1.5 1.7-2.9 2.9-4.2.7-.5 1.6-.9 2.5-1.3 1.5 2 2.6 4.5 4.9 5.7 1 .6 2.2.4 3.2.1.2-1.5.5-3 .5-4.6v-17.5c-.2-3.6-2.9-6.6-5.9-8.3l-.4-.4"/><path class="st6" d="M263.4 303.8c-2 .2-4 .7-6 .2-3.6-.4-7.2-1.3-10.4-3.1-.5.8-.9 1.6-1.4 2.3 3.8 2.4 8.3 3.4 12.7 3.8v40.3H242v3.1h16.3v60.5h3.1v-60.5h16.3v-3.1h-16.3V307c3-.3 5.9-.9 8.8-1.8 1.5-.6 2.9-1.4 4.4-2.1-.4-.9-.7-1.8-1.1-2.8-3.1 1.8-6.5 3.4-10.1 3.5zM250.3 268.3c1.6-.1 3.2-.8 4.8-.4 3 1.8 5.7 4.7 5.9 8.3v17.5c0 1.6-.3 3.1-.5 4.6-1 .3-2.2.5-3.2-.1-2.2-1.2-3.4-3.7-4.9-5.7.5-.3.9-.6 1.4-.9.3-.2.7-.3 1-.5 1.1 1.9 2.1 3.8 3.4 5.5.3-3.2-.1-6.4.3-9.7.3-2.7.2-5.4.2-8 0-1.9-.2-4-1.4-5.6-1.8-2.3-4.4-3.8-7-5z"/><path class="st7" d="M290.1 295.6c4.5-2.4 9-4.9 13.6-7.4 3.4 6.1 6.7 12.2 10.1 18.2-2 1-3.9 2.1-5.9 3.1-2.4 1.2-4.7 2.5-7.1 3.7-.2-.3-.4-.8-.5-1 .3-1.2.9-2.5.3-3.7-.6-1.6-2.5-2.5-2.2-4.4.1-1.8.5-3.6.8-5.4-.7-.5-1.3-.9-1.9-1.4-.6 2.5-1.1 5-1.9 7.5-2.1-2.9-3.6-6.1-5.3-9.2z"/><path class="st5" d="M252.1 271.4l1.6 1.4v2.1l-1.6-1.3v-2.2zM249.8 271.4l1.6 1.4v2.1l-1.6-1.3v-2.2zM247.5 271.4l1.5 1.4v2.1l-1.6-1.3v-2.2zM245.1 271.4l1.6 1.4v2.1l-1.6-1.3v-2.2zM249.4 277.2c1.5-.1 2.2 1 2.8 2-.9.4-1.6.9-2.5 1.2-1.2.2-2.2-.7-3.2-1.3.4-1 1.4-1.8 2.9-1.9z"/><g id="a_5_"><path class="st7" d="M245.7 414.3h6.8v8.5c-2.7 1.8-5.7 3-8.2 5-1.6 1.4-3.2 2.8-5 3.8-.9.6-2.1 1.4-3.2.7-1-.4-.6-1.6-.6-2.4.5-2.4 1.5-4.8 3.5-6.3 1.6-1.5 3.3-2.9 4.5-4.8.7-1.5 1.7-2.9 2.2-4.5z"/></g><g id="a_4_"><path class="st7" d="M273.6 414.6c.5 1.6 1.5 3 2.3 4.5 1.2 1.8 2.9 3.3 4.5 4.8 1.9 1.5 3 3.9 3.5 6.3 0 .8.3 2.1-.6 2.4-1 .7-2.2-.1-3.2-.7-1.8-1-3.4-2.5-5-3.8-2.5-2-5.5-3.2-8.2-5v-8.5h6.7z"/></g></g></svg>