<?xml version="1.0" encoding="utf-8"?>
<!-- Generator: Adobe Illustrator 19.1.0, SVG Export Plug-In . SVG Version: 6.00 Build 0)  -->
<svg version="1.1" id="Ebene_1" xmlns="http://www.w3.org/2000/svg" xmlns:xlink="http://www.w3.org/1999/xlink" x="0px" y="0px"
	 viewBox="0 0 198.4 57.5" style="enable-background:new 0 0 198.4 57.5;" xml:space="preserve">
<style type="text/css">
	.st0{fill:#FFFFFF;}
</style>
<g>
	<g id="XMLID_466_">
		<g id="XMLID_489_">
			<path id="XMLID_493_" class="st0" d="M34.9,32c-0.9,0.5-1.7,1.1-2.4,1.7l0,0l-2.6-4.5c0.8-0.4,1.6-0.9,2.4-1.4
				c1.3-0.8,2.8-1.9,3.7-3.6c1.8-3.2,1-7.4-1.7-9.7c-1.3-1.1-3-1.8-4.7-1.9c-1.9-0.1-3.7,0.6-5,1.2c-0.8,0.4-1.5,0.8-2.3,1.2
				c-0.2,0.1-0.5,0.3-0.7,0.4C20.4,16.1,12,21,12,21l-0.5,0.3l12.6,21.9l0.3,0.5l0.5-0.3c0,0,4.3-3.1,6.5-4.7l0,0l2.9-2.1
				c0.7-0.5,1.6-1.1,2-1.4c0.7-0.5,1.5-0.7,2.3-0.5c0.8,0.1,1.5,0.6,2,1.2c0.5,0.6,0.7,1.4,0.5,2.2c-0.1,0.7-0.6,1.4-1.2,1.8
				c-0.7,0.4-1.5,0.6-2.3,0.4c-0.9-0.2-1.8-0.7-2.2-1.5l-0.1-0.2l-2.9,1.7l0.1,0.2c0.8,1.3,1.7,2.1,2.8,2.6c0.9,0.4,1.9,0.6,2.9,0.6
				c2.1,0,4.1-1,5.3-2.6c1.8-2.4,1.5-5.9-0.7-8C40.7,31,37.4,30.6,34.9,32z M29.7,35.7c-1.3,0.9-2.6,1.9-4.2,3l-9.4-16.3l8.7-5
				c2.4-1.4,4.5-1.7,6.1-1c2,0.9,3.1,3.3,2.4,5.4c-0.3,0.9-0.8,1.9-3.9,3.7c-1.4,0.8-3.8,2.2-3.8,2.2L25.3,28L29.7,35.7z"/>
			<path id="XMLID_490_" class="st0" d="M28.8,0C12.9,0,0,12.9,0,28.8s12.9,28.8,28.8,28.8s28.8-12.9,28.8-28.8S44.6,0,28.8,0z
				 M28.8,54C14.9,54,3.5,42.7,3.5,28.8c0-13.9,11.3-25.2,25.2-25.2S54,14.9,54,28.8C54,42.7,42.7,54,28.8,54z"/>
		</g>
	</g>
	<g id="XMLID_444_">
		<path id="XMLID_461_" class="st0" d="M78.3,19.9c-1.5,0-3.5,0.6-4.7,2.3l-0.3,0.4l-0.3-2.4H70v20.7h3.3v-8.4l0.3,0.5
			c1,1.5,3.1,2,4.8,2c4.4,0,7.3-3.1,7.3-7.6C85.8,23.1,82.6,19.9,78.3,19.9z M78.1,31.9c-2.5,0-4.4-1.9-4.4-4.4
			c0-2.6,1.8-4.4,4.4-4.4c2.6,0,4.4,1.8,4.4,4.4C82.4,30,80.6,31.9,78.1,31.9z"/>
		<path id="XMLID_460_" class="st0" d="M130.3,21.9l-0.2,0.4l-0.3-2h-3.1v14.5h3.3v-7.7c0-2.5,1.4-3.9,3.9-3.9
			c1.2,0,1.9,0.3,2.6,0.9l1.5-2.9c-0.8-0.8-2.2-1.3-3.6-1.3C132.9,19.8,131.4,20.1,130.3,21.9z"/>
		<path id="XMLID_459_" class="st0" d="M142.3,13.9c-1,0-2,0.6-2,2s1,2,2,2c1,0,2-0.6,2-2S143.2,13.9,142.3,13.9z"/>
		<rect id="XMLID_458_" x="140.6" y="20.2" class="st0" width="3.3" height="14.5"/>
		<path id="XMLID_455_" class="st0" d="M160,18.8l-1.5,1.9l-0.1-0.1c-1.1-0.7-2.3-0.8-3.3-0.8c-4.3,0-7.3,3-7.3,7.3
			c0,4.5,2.8,7.3,7.3,7.3c1.9,0,3.9,1,3.9,3.2c0,2-1.6,3.4-3.9,3.4c-2.2,0-4-1.4-4.1-3.2h-3.3c0.1,3.7,3.1,6.3,7.3,6.3
			c4.3,0,7.3-2.6,7.3-6.4c0-2.3-0.9-3.7-3-4.7l-0.3-0.2l0.3-0.2c2.8-1.3,3-4.4,3-5.4c0-1.7-0.5-3.1-1.5-4.3l-0.1-0.1l1.6-2.1
			L160,18.8z M155.1,31.4c-2.4,0-4.1-1.8-4.1-4.3c0-2.5,1.7-4.4,4.1-4.4c2.3,0,4,1.8,4,4.4C159.1,29.6,157.4,31.4,155.1,31.4z"/>
		<path id="XMLID_452_" class="st0" d="M172.8,19.9c-4.3,0-7.5,3.2-7.5,7.6c0,4.5,3.1,7.6,7.5,7.6c4.5,0,7.6-3.1,7.6-7.6
			C180.4,23.1,177.2,19.9,172.8,19.9z M172.8,32c-2.9,0-4.2-2.4-4.2-4.5c0-2.3,1.4-4.6,4.2-4.6c2.6,0,4.2,2.3,4.2,4.6
			C177,29.7,175.7,32,172.8,32z"/>
		<path id="XMLID_451_" class="st0" d="M192.3,20c-1.8,0-3.2,0.7-4.8,2.2l-0.3,0.2l-0.3-2.2h-3v14.5h3.3v-7.4c0-2.5,1.7-4.3,4-4.3
			c2.3,0,3.8,1.6,3.8,4.1v7.6h3.3v-7.6C198.4,22.8,196,20,192.3,20z"/>
		<path id="XMLID_448_" class="st0" d="M97.1,32.1c-2.6,0-4.3-1.3-4.6-3.3l0-0.2h11.6c0.2-2.9-0.4-5.2-1.7-6.7
			c-1.3-1.4-3.2-2.1-5.6-2.1c-4.6,0-7.7,3.1-7.7,7.6c0,4.8,3.1,7.7,8,7.7c2.2,0,4.7-0.7,6.1-2l-1.5-2.5
			C100.4,31.6,98.8,32.1,97.1,32.1z M92.6,25.7c0.5-1.9,2.1-3,4.3-3c2.3,0,3.8,1.1,4,3l0,0.2h-8.4L92.6,25.7z"/>
		<path id="XMLID_445_" class="st0" d="M115.6,32.1c-2.6,0-4.3-1.3-4.6-3.3l0-0.2h11.6c0.2-2.9-0.4-5.2-1.7-6.7
			c-1.3-1.4-3.2-2.1-5.6-2.1c-4.6,0-7.7,3.1-7.7,7.6c0,4.8,3.1,7.7,8,7.7c2.2,0,4.7-0.7,6.1-2l-1.5-2.5
			C118.8,31.6,117.2,32.1,115.6,32.1z M111,25.7c0.5-1.9,2.1-3,4.3-3c2.3,0,3.8,1.1,4,3l0,0.2H111L111,25.7z"/>
	</g>
</g>
</svg>
